<svg id="svg" xmlns="http://www.w3.org/2000/svg" xmlns:xlink="http://www.w3.org/1999/xlink" viewBox="0, 0, 400,214.78260869565216"><g id="svgg"><path id="path0" d="M16.522 51.739 L 16.522 53.913 26.847 53.913 L 37.172 53.913 64.868 111.304 L 92.564 168.696 100.195 168.696 C 104.392 168.696,107.828 168.402,107.831 168.043 C 107.834 167.685,105.858 163.283,103.440 158.261 L 99.044 149.130 118.728 108.261 C 129.554 85.783,138.574 67.228,138.771 67.029 C 138.969 66.830,139.130 94.906,139.130 129.420 L 139.130 192.174 133.043 192.174 C 127.130 192.174,126.957 192.236,126.957 194.348 L 126.957 196.522 140.870 196.522 L 154.783 196.522 154.783 123.043 L 154.783 49.565 139.130 49.565 L 123.478 49.565 123.478 51.706 C 123.478 53.801,123.645 53.853,131.164 54.098 L 138.849 54.348 120.338 93.043 C 110.158 114.326,100.536 134.347,98.957 137.535 L 96.087 143.331 73.512 96.448 L 50.938 49.565 33.730 49.565 L 16.522 49.565 16.522 51.739 M157.391 123.043 L 157.391 196.522 171.739 196.522 L 186.087 196.522 186.087 194.348 C 186.087 192.222,185.942 192.174,179.565 192.174 L 173.043 192.174 173.043 160.435 L 173.043 128.696 193.478 128.696 L 213.913 128.696 213.913 134.783 C 213.913 140.696,213.975 140.870,216.087 140.870 L 218.261 140.870 218.261 126.087 L 218.261 111.304 216.087 111.304 C 213.975 111.304,213.913 111.478,213.913 117.391 L 213.913 123.478 193.478 123.478 L 173.043 123.478 173.043 88.696 L 173.043 53.913 194.264 53.913 L 215.486 53.913 228.395 65.628 C 235.495 72.072,241.598 77.354,241.957 77.367 C 242.315 77.381,242.609 71.130,242.609 63.478 L 242.609 49.565 200.000 49.565 L 157.391 49.565 157.391 123.043 M246.087 123.043 L 246.087 196.522 260.000 196.522 L 273.913 196.522 273.913 194.348 C 273.913 192.222,273.768 192.174,267.391 192.174 L 260.870 192.174 260.870 160.435 L 260.870 128.696 288.696 128.696 L 316.522 128.696 316.522 160.435 L 316.522 192.174 310.000 192.174 C 303.623 192.174,303.478 192.222,303.478 194.348 L 303.478 196.522 317.826 196.522 L 332.174 196.522 332.174 123.043 L 332.174 49.565 317.826 49.565 L 303.478 49.565 303.478 51.739 C 303.478 53.865,303.623 53.913,310.000 53.913 L 316.522 53.913 316.522 88.696 L 316.522 123.478 288.696 123.478 L 260.870 123.478 260.870 88.696 L 260.870 53.913 267.391 53.913 C 273.768 53.913,273.913 53.865,273.913 51.739 L 273.913 49.565 260.000 49.565 L 246.087 49.565 246.087 123.043 M334.783 123.043 L 334.783 196.522 348.696 196.522 L 362.609 196.522 362.609 194.348 C 362.609 192.236,362.435 192.174,356.522 192.174 L 350.435 192.174 350.435 123.043 L 350.435 53.913 356.522 53.913 C 362.435 53.913,362.609 53.851,362.609 51.739 L 362.609 49.565 348.696 49.565 L 334.783 49.565 334.783 123.043 M32.920 124.783 L 33.232 192.174 27.051 192.174 C 21.037 192.174,20.870 192.233,20.870 194.348 L 20.870 196.522 35.217 196.522 L 49.565 196.522 49.565 194.348 C 49.565 192.236,49.391 192.174,43.478 192.174 L 37.391 192.174 37.436 142.391 L 37.482 92.609 45.063 108.261 C 49.232 116.870,60.462 140.241,70.018 160.198 L 87.391 196.483 95.387 196.502 L 103.383 196.522 94.888 178.913 C 90.215 169.228,75.119 137.924,61.340 109.348 C 39.920 64.926,36.020 57.391,34.448 57.391 L 32.609 57.391 32.920 124.783 M225.217 83.043 C 225.217 85.169,225.362 85.217,231.739 85.217 L 238.261 85.217 238.261 138.696 L 238.261 192.174 231.739 192.174 C 225.362 192.174,225.217 192.222,225.217 194.348 L 225.217 196.522 233.913 196.522 L 242.609 196.522 242.609 138.696 L 242.609 80.870 233.913 80.870 L 225.217 80.870 225.217 83.043 M369.091 184.743 C 364.593 189.241,367.843 196.522,374.348 196.522 C 378.372 196.522,381.739 193.352,381.739 189.565 C 381.739 185.778,378.372 182.609,374.348 182.609 C 372.192 182.609,370.565 183.269,369.091 184.743 M378.811 187.540 C 379.577 190.595,378.533 193.525,376.323 194.518 C 372.173 196.382,367.759 191.703,369.683 187.480 C 371.668 183.124,377.712 183.164,378.811 187.540 M373.251 185.797 C 371.626 186.451,370.365 189.240,370.975 190.831 C 371.690 192.694,374.335 194.030,376.024 193.382 C 377.927 192.652,377.744 191.375,375.809 191.881 C 374.938 192.109,373.717 191.681,373.094 190.930 C 371.619 189.153,373.473 186.639,375.809 187.249 C 377.749 187.757,377.925 186.478,376.016 185.745 C 375.259 185.455,374.575 185.248,374.494 185.286 C 374.414 185.324,373.854 185.554,373.251 185.797 " stroke="none" fill-rule="evenodd"></path></g></svg>