<?xml version="1.0" encoding="utf-8"?>
<svg version="1.1" id="Layer_1" xmlns="http://www.w3.org/2000/svg" xmlns:xlink="http://www.w3.org/1999/xlink" x="0px" y="0px"
	 width="136.654px" height="100.176px" viewBox="237.673 345.912 136.654 100.176"
	 enable-background="new 237.673 345.912 136.654 100.176" xml:space="preserve">
<g>
	<g>
		<polygon class="st0" points="370.623,383.598 317.022,408.492 241.376,408.402 294.984,383.508"/>
		<polygon class="st1 st11"  points="370.623,383.598 294.984,383.508 336.514,345.912 		"/>
		<polygon class="st1 st12"  points="317.022,408.492 275.492,446.088 241.376,408.402 		"/>
		<polyline class="st21" points="343.294,353.402 336.514,345.912 328.239,353.402 		"/>
		<polyline class="st22" points="282.961,439.328 275.492,446.088 269.369,439.328 		"/>
		<path class="st3" d="M237.673,389.88h2.129l2.767,7.608h0.029l2.754-7.608h2.129v9.891h-1.603v-7.497h-0.029l-2.614,7.497h-1.313l-2.614-7.497
			h-0.029v7.497h-1.604v-9.891H237.673z"/>
		<path class="st3" d="M254.092,397.613h1.453c-0.36,1.342-1.412,2.364-3.223,2.364c-2.199,0-3.541-1.52-3.541-3.735
			c0-2.295,1.342-3.736,3.471-3.736c2.282,0,3.404,1.591,3.404,4.109h-5.422c0,1.188,0.762,2.171,2.046,2.171
			C253.483,398.786,253.967,398.04,254.092,397.613z M250.231,395.538h3.972c0-1.093-0.774-1.88-1.951-1.88
			S250.231,394.444,250.231,395.538z"/>
		<path class="st3" d="M263.067,389.88v9.891h-1.453v-0.815h-0.029c-0.373,0.484-1.065,1.022-2.158,1.022c-1.813,0-3.152-1.411-3.152-3.735
			c0-2.324,1.342-3.736,3.152-3.736c1.093,0,1.785,0.513,2.158,1.052h0.029v-3.679H263.067z M261.602,396.242
			c0-1.578-0.733-2.543-1.922-2.543c-1.272,0-1.951,1.16-1.951,2.543c0,1.384,0.679,2.547,1.951,2.547
			C260.868,398.786,261.602,397.804,261.602,396.242z"/>
		<path class="st3" d="M267.454,393.654c-1.164,0-1.591,0.36-1.661,1.272h-1.412c0.07-1.354,0.94-2.419,3.069-2.419
			c1.562,0,2.726,0.596,2.726,2.477v3.362c0,0.497,0.111,0.762,0.679,0.705v0.691c-0.332,0.124-0.567,0.153-0.845,0.153
			c-0.774,0-1.135-0.277-1.271-0.97h-0.029c-0.443,0.622-1.247,1.052-2.336,1.052c-1.438,0-2.324-0.828-2.324-2.021
			c0-1.549,1.147-2.034,2.92-2.378c1.093-0.207,1.756-0.344,1.756-1.023C268.726,394.043,268.419,393.654,267.454,393.654z
			 M268.726,397.087v-1.064c-0.236,0.166-0.804,0.331-1.479,0.472c-1.205,0.265-1.728,0.608-1.728,1.329
			c0,0.65,0.386,1.011,1.176,1.011C267.894,398.827,268.726,398.234,268.726,397.087z"/>
		<path class="st3" d="M273.688,391.926v0.775h1.3v1.188h-1.3v5.878h-1.466v-5.878h-1.011v-1.188h1.011v-0.899c0-1.495,0.637-2.021,1.798-2.021
			c0.36,0,0.679,0.042,0.969,0.096v1.189C274.048,391.027,273.688,391.123,273.688,391.926z"/>
		<path class="st2" d="M284.66,394.154v1.412h-4.274v4.204h-1.645v-9.891h6.917v1.396h-5.269v2.878H284.66z"/>
		<path class="st2" d="M286.69,390.737c0-0.497,0.415-0.762,0.816-0.762c0.427,0,0.829,0.261,0.829,0.762s-0.402,0.775-0.829,0.775
			C287.107,391.512,286.69,391.235,286.69,390.737z M288.239,392.701v7.069h-1.454v-7.069H288.239z"/>
		<path class="st2" d="M295.876,394.888v4.883h-1.466v-4.469c0-0.953-0.401-1.562-1.396-1.562c-1.119,0-1.839,0.679-1.839,1.728v4.303h-1.453
			v-7.069h1.453v0.911h0.029c0.373-0.554,1.106-1.106,2.324-1.106C294.837,392.506,295.876,393.269,295.876,394.888z"/>
		<path class="st2" d="M300.205,393.654c-1.164,0-1.59,0.36-1.661,1.272h-1.412c0.07-1.354,0.94-2.419,3.07-2.419
			c1.562,0,2.725,0.596,2.725,2.477v3.362c0,0.497,0.111,0.762,0.679,0.705v0.691c-0.331,0.124-0.567,0.153-0.844,0.153
			c-0.775,0-1.135-0.277-1.272-0.97h-0.029c-0.443,0.622-1.246,1.052-2.336,1.052c-1.438,0-2.324-0.828-2.324-2.021
			c0-1.549,1.147-2.034,2.92-2.378c1.093-0.207,1.756-0.344,1.756-1.023C301.477,394.043,301.174,393.654,300.205,393.654z
			 M301.477,397.087v-1.064c-0.236,0.166-0.803,0.331-1.479,0.472c-1.205,0.265-1.728,0.608-1.728,1.329
			c0,0.65,0.386,1.011,1.176,1.011C300.648,398.827,301.477,398.234,301.477,397.087z"/>
		<path class="st2" d="M310.605,394.888v4.883h-1.466v-4.469c0-0.953-0.401-1.562-1.396-1.562c-1.118,0-1.839,0.679-1.839,1.728v4.303h-1.454
			v-7.069h1.454v0.911h0.029c0.373-0.554,1.106-1.106,2.324-1.106C309.57,392.506,310.605,393.269,310.605,394.888z"/>
		<path class="st2" d="M315.046,393.695c-1.425,0-2.033,1.218-2.033,2.544s0.596,2.547,2.033,2.547c1.246,0,1.702-0.857,1.757-1.646h1.453
			c-0.111,1.633-1.37,2.837-3.21,2.837c-2.116,0-3.487-1.52-3.487-3.735c0-2.215,1.371-3.736,3.472-3.736
			c1.839,0,3.044,1.176,3.223,2.78h-1.454C316.748,394.569,316.289,393.695,315.046,393.695z"/>
		<path class="st2" d="M324.146,397.613h1.453c-0.359,1.342-1.412,2.364-3.223,2.364c-2.199,0-3.541-1.52-3.541-3.735
			c0-2.295,1.342-3.736,3.472-3.736c2.282,0,3.404,1.591,3.404,4.109h-5.423c0,1.188,0.763,2.171,2.047,2.171
			C323.538,398.786,324.022,398.04,324.146,397.613z M320.286,395.538h3.972c0-1.093-0.774-1.88-1.95-1.88
			C321.131,393.657,320.286,394.444,320.286,395.538z"/>
		<path class="st2" d="M331.13,389.88v4.093h4.677v-4.093h1.645v9.891h-1.645v-4.386h-4.677v4.386h-1.645v-9.891H331.13z"/>
		<path class="st2" d="M342.309,399.978c-2.212,0-3.554-1.536-3.554-3.735s1.342-3.736,3.554-3.736s3.555,1.537,3.555,3.736
			S344.521,399.978,342.309,399.978z M342.309,398.786c1.384,0,2.104-1.094,2.104-2.547c0-1.466-0.72-2.544-2.104-2.544
			c-1.383,0-2.104,1.078-2.104,2.544C340.205,397.695,340.926,398.786,342.309,398.786z"/>
		<path class="st2" d="M348.365,389.88v9.891h-1.467v-9.891H348.365z"/>
		<path class="st2" d="M356.193,389.88v9.891h-1.453v-0.815h-0.029c-0.372,0.484-1.064,1.022-2.157,1.022c-1.811,0-3.152-1.411-3.152-3.735
			c0-2.324,1.342-3.736,3.152-3.736c1.093,0,1.785,0.513,2.157,1.052h0.029v-3.679H356.193z M354.728,396.242
			c0-1.578-0.733-2.543-1.922-2.543c-1.272,0-1.951,1.16-1.951,2.543c0,1.384,0.679,2.547,1.951,2.547
			C353.994,398.786,354.728,397.804,354.728,396.242z"/>
		<path class="st2" d="M357.466,390.737c0-0.497,0.414-0.762,0.815-0.762c0.428,0,0.829,0.261,0.829,0.762s-0.401,0.775-0.829,0.775
			C357.88,391.512,357.466,391.235,357.466,390.737z M359.015,392.701v7.069h-1.454v-7.069H359.015z"/>
		<path class="st2" d="M366.651,394.888v4.883h-1.466v-4.469c0-0.953-0.401-1.562-1.396-1.562c-1.118,0-1.839,0.679-1.839,1.728v4.303h-1.453
			v-7.069h1.453v0.911h0.028c0.373-0.554,1.106-1.106,2.324-1.106C365.612,392.506,366.651,393.269,366.651,394.888z"/>
		<path class="st2" d="M374.327,392.701v6.585c0,2.034-1.23,2.933-3.238,2.933c-2.034,0-3.152-1.064-3.306-2.254h1.467
			c0.137,0.622,0.637,1.094,1.784,1.094c1.218,0,1.84-0.555,1.84-1.826v-0.857h-0.029c-0.373,0.525-1.022,1.052-2.145,1.052
			c-1.77,0-3.099-1.23-3.099-3.458c0-2.241,1.329-3.458,3.099-3.458c1.118,0,1.769,0.526,2.145,1.023h0.029v-0.829h1.453V392.701z
			 M372.861,395.965c0-1.495-0.705-2.27-1.881-2.27c-1.271,0-1.922,0.953-1.922,2.27c0,1.301,0.65,2.27,1.922,2.27
			C372.156,398.234,372.861,397.46,372.861,395.965z"/>
	</g>
</g>
</svg>
