<?xml version="1.0"?>
<svg xmlns="http://www.w3.org/2000/svg" xmlns:xlink="http://www.w3.org/1999/xlink" version="1.1" id="Capa_1" x="0px" y="0px" viewBox="0 0 353.28 353.28" style="enable-background:new 0 0 353.28 353.28;" xml:space="preserve" width="18px" height="18px" class=""><g><g>
	<g>
		<path d="M319.711,47.104c-65.536-4.096-77.312-41.984-77.824-43.52C241.375,1.536,239.327,0,236.767,0H120.031    c-2.048,0-3.584,1.024-4.608,2.56c-25.6,43.52-80.384,39.936-80.896,39.936c-1.536,0-3.072,0.512-4.096,1.536    s-1.536,2.56-1.536,3.584c0,2.048,6.144,191.488,144.384,304.64c1.024,1.024,2.048,1.024,3.072,1.024s2.048-0.512,3.072-1.024    C318.175,238.592,324.319,54.272,324.319,52.224C324.831,49.152,322.271,47.104,319.711,47.104z M176.863,341.504    C58.079,241.664,41.695,83.456,39.135,52.224c15.872,0,58.88-4.608,83.456-42.496h111.104    c4.608,10.752,23.04,41.984,80.384,47.104C312.031,86.016,295.647,241.152,176.863,341.504z" data-original="#000000" class="active-path" data-old_color="#000000" fill="#FFFFFF"/>
	</g>
</g><g>
	<g>
		<path d="M237.279,133.632c-2.048-1.536-3.584-3.072-5.632-3.072l-34.816-5.12l-15.36-31.744c-1.024-1.536-2.56-3.072-4.608-3.072    c-2.048,0-3.584,1.024-4.608,3.072l-15.36,31.232l-34.816,5.12c-2.048,0.512-3.584,1.536-4.096,3.584    c-0.512,2.048,0,4.096,1.536,5.12l25.088,24.576l-6.144,34.816c-0.512,2.048,0.512,4.096,2.048,5.12    c1.536,1.024,3.584,1.536,5.632,0.512l31.232-16.384l31.232,16.384c0.512,0.512,1.536,0.512,2.56,0.512s2.048-0.512,3.072-1.024    c1.536-1.024,2.56-3.072,2.048-5.12l-5.632-34.816l25.088-24.576C237.279,137.216,237.791,135.168,237.279,133.632z     M199.903,158.208c-1.024,1.024-1.536,3.072-1.536,4.608l4.608,27.136l-24.064-12.8c-0.512-0.512-1.536-0.512-2.56-0.512    s-1.536,0-2.56,0.512l-24.064,12.8l4.608-27.136c0.512-1.536-0.512-3.584-1.536-4.608l-19.456-18.944l27.136-4.096    c1.536,0,3.072-1.536,4.096-2.56l12.288-24.576l12.288,24.576c0.512,1.536,2.048,2.56,4.096,2.56l27.136,4.096L199.903,158.208z" data-original="#000000" class="active-path" data-old_color="#000000" fill="#FFFFFF"/>
	</g>
</g></g> </svg>
