<?xml version="1.0"?>
<svg xmlns="http://www.w3.org/2000/svg" id="Capa_1" enable-background="new 0 0 512 512" height="18px" viewBox="0 0 512 512" width="18px" class=""><g><g><path d="m394.303 346.55c-1.764-5.43-6.458-9.388-12.109-10.209l-77.903-11.32-27.849-56.429c8.078-.235 14.558-6.842 14.558-14.977 0-6.127-3.679-11.388-8.944-13.716l77.972-48.69c4.389-2.741 7.055-7.549 7.055-12.723v-163.486c0-8.284-6.716-15-15-15h-192.166c-8.284 0-15 6.716-15 15v163.485c0 5.174 2.667 9.982 7.055 12.723l77.972 48.69c-5.265 2.329-8.944 7.589-8.944 13.716 0 8.135 6.48 14.742 14.558 14.978l-27.849 56.429-77.903 11.32c-5.65.821-10.345 4.779-12.109 10.209-1.765 5.43-.293 11.391 3.795 15.376l56.372 54.949-13.308 77.589c-.965 5.627 1.348 11.315 5.967 14.671 4.62 3.356 10.743 3.798 15.797 1.142l69.68-36.632 69.679 36.632c2.194 1.154 4.591 1.723 6.978 1.723 3.11 0 6.205-.966 8.818-2.865 4.619-3.356 6.933-9.044 5.967-14.671l-13.308-77.589 56.372-54.949c4.09-3.985 5.561-9.946 3.797-15.376zm-57.219-316.55v30h-162.167v-30zm-162.167 60h36.083v58.485c0 8.284 6.716 15 15 15s15-6.716 15-15v-58.485h30v58.485c0 8.284 6.716 15 15 15s15-6.716 15-15v-58.485h36.083v80.168l-81.083 50.633-81.083-50.633zm132.631 310.897c-3.535 3.446-5.148 8.411-4.314 13.277l9.503 55.405-49.757-26.159c-2.185-1.149-4.583-1.723-6.98-1.723-2.398 0-4.795.574-6.98 1.723l-49.757 26.159 9.503-55.405c.835-4.866-.779-9.831-4.314-13.277l-40.254-39.238 55.63-8.083c4.885-.71 9.109-3.779 11.294-8.206l24.878-50.41 24.878 50.41c2.185 4.427 6.409 7.496 11.294 8.206l55.63 8.083z" data-original="#000000" class="active-path" data-old_color="#000000" fill="#FFFFFF"/></g></g> </svg>
